<svg xmlns="http://www.w3.org/2000/svg" viewBox="0 0 620 210"><defs><style>.cls-1{fill:#fff;}</style></defs><g id="Layer_2" data-name="Layer 2"><g id="Layer_1-2" data-name="Layer 1"><path class="cls-1" d="M0,140v70H620V140Zm50,60H40V180H30V170H20v30H10V150H20v10H30v10H40V150H50Zm40-40H70v10H80v10H70v20H60V150H90Zm40,0H120v40H110V160H100V150h30Zm60,10H180V160H160v30h20V180h10v10H180v10H160V190H150V160h10V150h20v10h10Zm50,20H230v10H210V190H200V160h10V150h20v10h10Zm40,10H250V150h10v40h20Zm40,0H290V150h10v40h20Zm40-40H340v10h10v10H340v10h20v10H330V150h30Zm50,10H400V160H380v30h20V180h10v10H400v10H380V190H370V160h10V150h20v10h10Zm40-10H440v40H430V160H420V150h30Zm20,40H460V150h10Zm50-10H510v10H490V190H480V160h10V150h20v10h10Zm50,10H560V180H550V170H540v30H530V150h10v10h10v10h10V150h10Zm40-40H590v10h20v30H580V190h20V180H580V150h30Z"/><rect class="cls-1" x="490" y="160" width="20" height="30"/><rect class="cls-1" x="210" y="160" width="20" height="30"/><path class="cls-1" d="M80,60V20H70V10H60V0H0V130H60V120H70V110H80V70H70V60ZM50,100H30V80H50Zm0-50H30V30H50Z"/><path class="cls-1" d="M160,10V0H100V10H90V130h30V80h20v50h30V10ZM140,50H120V30h20Z"/><polygon class="cls-1" points="260 100 260 130 180 130 180 0 210 0 210 100 260 100"/><polygon class="cls-1" points="350 100 350 130 270 130 270 0 300 0 300 100 350 100"/><polygon class="cls-1" points="390 30 390 50 420 50 420 80 390 80 390 100 440 100 440 130 360 130 360 0 440 0 440 30 390 30"/><path class="cls-1" d="M530,60V20H520V10H510V0H450V130h30V80h20v50h30V70H520V60ZM500,50H480V30h20Z"/><polygon class="cls-1" points="570 90 570 100 620 100 620 130 540 130 540 80 550 80 550 70 560 70 560 60 570 60 570 50 580 50 580 40 590 40 590 30 540 30 540 0 620 0 620 50 610 50 610 60 600 60 600 70 590 70 590 80 580 80 580 90 570 90"/></g></g></svg>